<?xml version="1.0" encoding="utf-8"?>
<!-- Generator: Adobe Illustrator 22.1.0, SVG Export Plug-In . SVG Version: 6.00 Build 0)  -->
<svg version="1.1" id="Symbol_18_1" xmlns="http://www.w3.org/2000/svg" xmlns:xlink="http://www.w3.org/1999/xlink" x="0px"
	 y="0px" viewBox="0 0 390 390" style="enable-background:new 0 0 390 390;" xml:space="preserve">
<style type="text/css">
	.st0{fill:#383A73;}
	.st1{fill:#FFFFFF;}
	.st2{fill:#F6BA41;}
	.st3{fill:#FF9783;}
	.st4{fill:#66D5D6;}
	.st5{enable-background:new    ;}
</style>
<g id="round_graph" transform="translate(370 1437)">
	<g id="Group_73" transform="translate(122.52 122.588)">
		<path id="Path_56" class="st0" d="M-297.6-1292.2c-40,0.1-72.5-32.1-72.7-72.1c-0.1-40,32.1-72.5,72.1-72.7c0.2,0,0.4,0,0.5,0v28
			c-24.5,0-44.4,19.9-44.4,44.4s19.9,44.4,44.4,44.4c9.2,0,18.2-2.8,25.7-8.2l16.3,22.8C-267.8-1296.8-282.5-1292.1-297.6-1292.2z"
			/>
	</g>
	<g id="Group_74" transform="translate(220.696 194.399)">
		<path id="Path_57" class="st1" d="M-323.3-1436.4c0,23.4-11.3,45.3-30.4,58.9l-16.3-22.8c11.6-8.3,18.6-21.7,18.6-36.1v-0.6h28
			V-1436.4z"/>
	</g>
	<g id="Group_76" transform="translate(9.116)">
		<g id="Group_75">
			<path id="Path_58" class="st2" d="M-343.3-1292.8l-26.7-8.5c25.9-80.8,101-135.7,185.8-135.7v28c-35.8-0.1-70.7,11.4-99.4,32.8
				C-311.6-1355.3-332.5-1326.1-343.3-1292.8z"/>
		</g>
	</g>
	<g id="Group_77" transform="translate(0 135.709)">
		<path id="Path_59" class="st1" d="M20-1378.2v0.6c0,107.5-87.5,195-195,194.9c-107.5,0-195-87.4-195-195c0-20.1,3.1-40.1,9.2-59.3
			l26.7,8.5c-5.2,16.4-7.8,33.6-7.8,50.8c0,92,74.8,167,166.9,167s167-74.8,167-166.9v-0.6H20z"/>
	</g>
	<g id="Group_79" transform="translate(76.037 40.963)">
		<g id="Group_78">
			<path id="Path_60" class="st3" d="M-348.4-1363.1l-21.6-17.8c29.2-35.6,72.9-56.1,118.9-56.1v28
				C-288.7-1409-324.4-1392.2-348.4-1363.1z"/>
		</g>
	</g>
	<g id="Group_80" transform="translate(40.773 97.049)">
		<path id="Path_61" class="st1" d="M-61.6-1339.5v0.6c0,84.9-69.1,154.1-154.2,154.1c-85,0-154.2-69.1-154.2-154.1
			c0-35.8,12.5-70.4,35.3-98.1l21.6,17.8c-18.6,22.6-28.7,51-28.8,80.2c0,69.5,56.6,126.1,126.1,126.1s126.1-56.6,126.1-126.1v-0.6
			L-61.6-1339.5z"/>
	</g>
	<g id="Group_81" transform="translate(95.171 194.299)">
		<path id="Path_62" class="st1" d="M-156.9-1436.3c0,62.6-50.7,113.3-113.3,113.3c-41.7,0-80.1-22.9-99.8-59.7l24.7-13.3
			c22.3,41.5,74,57,115.5,34.7c27.6-14.9,44.9-43.7,44.9-75v-0.6h28C-156.9-1436.8-156.9-1436.5-156.9-1436.3z"/>
	</g>
	<g id="Group_82" transform="translate(81.647 81.726)">
		<path id="Path_63" class="st4" d="M-356.6-1270.1c-29.6-55.2-8.8-123.9,46.4-153.4c16.4-8.8,34.8-13.4,53.5-13.4v28
			c-47.1,0-85.2,38.1-85.3,85.2c0,14.1,3.5,27.9,10.1,40.3L-356.6-1270.1z"/>
	</g>
</g>
<g id="Group_84" transform="translate(593.011 1477.216)">
	<g class="st5">
		<path class="st3" d="M-363.8-1431v14h-3.2v-11.4h-2.8v-2.6H-363.8z"/>
		<path class="st3" d="M-348.6-1419.9h-2.3v2.9h-3.2v-2.9h-7.5v-2.2l6.6-8.9h3.4l-6.1,8.4h3.8v-2.6h3.1v2.6h2.3V-1419.9z"/>
		<path class="st3" d="M-341.2-1424.4c-0.6-0.7-1-1.6-1-2.8s0.3-2.1,1-2.8c0.6-0.7,1.5-1,2.5-1s1.9,0.4,2.5,1c0.6,0.7,1,1.6,1,2.8
			s-0.3,2.1-1,2.8c-0.6,0.7-1.5,1-2.5,1S-340.6-1423.7-341.2-1424.4z M-337.6-1425.6c0.3-0.4,0.4-0.9,0.4-1.7s-0.1-1.3-0.4-1.7
			s-0.6-0.6-1.1-0.6c-0.4,0-0.8,0.2-1.1,0.6s-0.4,0.9-0.4,1.7s0.1,1.3,0.4,1.6c0.3,0.4,0.6,0.6,1.1,0.6
			C-338.2-1425-337.9-1425.2-337.6-1425.6z M-330.4-1431h2.4l-9.6,14h-2.4L-330.4-1431z M-331-1417.3c-0.5-0.3-0.9-0.8-1.2-1.4
			c-0.3-0.6-0.4-1.3-0.4-2c0-0.8,0.1-1.5,0.4-2c0.3-0.6,0.7-1,1.2-1.3s1.1-0.5,1.8-0.5c1,0,1.9,0.3,2.5,1c0.6,0.7,1,1.6,1,2.8
			c0,1.2-0.3,2.1-1,2.8c-0.6,0.7-1.5,1-2.5,1C-329.9-1416.8-330.5-1417-331-1417.3z M-328.1-1419c0.3-0.4,0.4-0.9,0.4-1.7
			s-0.1-1.3-0.4-1.6c-0.3-0.4-0.6-0.6-1.1-0.6c-0.4,0-0.8,0.2-1.1,0.6c-0.3,0.4-0.4,0.9-0.4,1.7s0.1,1.3,0.4,1.7s0.6,0.6,1.1,0.6
			C-328.7-1418.4-328.4-1418.6-328.1-1419z"/>
	</g>
</g>
<g id="Group_85" transform="translate(591.82 1517.278)">
	<g class="st5">
		<path class="st4" d="M-359.9-1423.9c0.7,0.7,1,1.6,1,2.6c0,0.8-0.2,1.6-0.6,2.2c-0.4,0.7-1.1,1.2-2,1.7c-0.9,0.4-1.9,0.6-3.2,0.6
			c-1,0-2-0.1-2.9-0.4c-1-0.3-1.8-0.6-2.4-1.1l1.3-2.5c0.5,0.4,1.1,0.7,1.8,0.9c0.7,0.2,1.4,0.3,2.2,0.3c0.8,0,1.5-0.2,1.9-0.5
			c0.5-0.3,0.7-0.8,0.7-1.3c0-1.1-0.9-1.7-2.6-1.7h-1.5v-2.1l2.9-3.3h-6v-2.6h9.8v2.1l-3.2,3.6
			C-361.5-1425.1-360.5-1424.6-359.9-1423.9z"/>
		<path class="st4" d="M-348.1-1423.9c0.7,0.7,1,1.6,1,2.6c0,0.8-0.2,1.6-0.6,2.2c-0.4,0.7-1.1,1.2-2,1.7c-0.9,0.4-1.9,0.6-3.2,0.6
			c-1,0-2-0.1-2.9-0.4c-1-0.3-1.8-0.6-2.4-1.1l1.3-2.5c0.5,0.4,1.1,0.7,1.8,0.9c0.7,0.2,1.4,0.3,2.2,0.3c0.8,0,1.5-0.2,1.9-0.5
			c0.5-0.3,0.7-0.8,0.7-1.3c0-1.1-0.9-1.7-2.6-1.7h-1.5v-2.1l2.9-3.3h-6v-2.6h9.8v2.1l-3.2,3.6
			C-349.7-1425.1-348.8-1424.6-348.1-1423.9z"/>
		<path class="st4" d="M-339.2-1424.4c-0.6-0.7-1-1.6-1-2.8s0.3-2.1,1-2.8c0.6-0.7,1.5-1,2.5-1c1,0,1.9,0.4,2.5,1
			c0.6,0.7,1,1.6,1,2.8s-0.3,2.1-1,2.8c-0.6,0.7-1.5,1-2.5,1C-337.8-1423.4-338.6-1423.7-339.2-1424.4z M-335.7-1425.6
			c0.3-0.4,0.4-0.9,0.4-1.7s-0.1-1.3-0.4-1.7c-0.3-0.4-0.6-0.6-1.1-0.6c-0.4,0-0.8,0.2-1.1,0.6s-0.4,0.9-0.4,1.7s0.1,1.3,0.4,1.6
			c0.3,0.4,0.6,0.6,1.1,0.6C-336.3-1425-335.9-1425.2-335.7-1425.6z M-328.4-1431h2.4l-9.6,14h-2.4L-328.4-1431z M-329-1417.3
			c-0.5-0.3-0.9-0.8-1.2-1.4c-0.3-0.6-0.4-1.3-0.4-2c0-0.8,0.1-1.5,0.4-2c0.3-0.6,0.7-1,1.2-1.3c0.5-0.3,1.1-0.5,1.8-0.5
			c1,0,1.9,0.3,2.5,1s1,1.6,1,2.8c0,1.2-0.3,2.1-1,2.8c-0.6,0.7-1.5,1-2.5,1C-327.9-1416.8-328.5-1417-329-1417.3z M-326.2-1419
			c0.3-0.4,0.4-0.9,0.4-1.7s-0.1-1.3-0.4-1.6c-0.3-0.4-0.6-0.6-1.1-0.6c-0.4,0-0.8,0.2-1.1,0.6c-0.3,0.4-0.4,0.9-0.4,1.7
			s0.1,1.3,0.4,1.7s0.6,0.6,1.1,0.6C-326.8-1418.4-326.4-1418.6-326.2-1419z"/>
	</g>
</g>
<g class="st5">
	<path class="st0" d="M230.3,132.1c0.7,0.4,1.3,0.9,1.7,1.5s0.6,1.4,0.6,2.3c0,0.9-0.2,1.8-0.7,2.5c-0.5,0.7-1.1,1.2-1.9,1.6
		s-1.7,0.6-2.7,0.6c-2,0-3.5-0.6-4.6-1.8c-1.1-1.2-1.7-2.9-1.7-5.1c0-1.6,0.3-2.9,0.9-4.1c0.6-1.1,1.4-2,2.5-2.6
		c1.1-0.6,2.3-0.9,3.7-0.9c0.7,0,1.5,0.1,2.2,0.2c0.7,0.2,1.3,0.4,1.8,0.7l-1.2,2.4c-0.7-0.5-1.6-0.7-2.6-0.7c-1.2,0-2.1,0.3-2.8,1
		c-0.7,0.7-1.1,1.7-1.1,3c0.8-0.8,2-1.2,3.5-1.2C228.7,131.6,229.5,131.8,230.3,132.1z M228.8,137.6c0.4-0.4,0.7-0.9,0.7-1.5
		c0-0.6-0.2-1.2-0.7-1.5c-0.4-0.4-1-0.6-1.7-0.6c-0.7,0-1.3,0.2-1.7,0.6c-0.5,0.4-0.7,0.9-0.7,1.5s0.2,1.1,0.7,1.5
		c0.4,0.4,1,0.6,1.8,0.6C227.8,138.2,228.4,138,228.8,137.6z"/>
	<path class="st0" d="M236.7,139.8c-0.9-0.6-1.6-1.4-2.1-2.5c-0.5-1.1-0.8-2.4-0.8-3.9s0.3-2.8,0.8-3.9c0.5-1.1,1.2-1.9,2.1-2.5
		c0.9-0.6,1.9-0.9,3.1-0.9c1.2,0,2.2,0.3,3.1,0.9c0.9,0.6,1.6,1.4,2.1,2.5c0.5,1.1,0.8,2.4,0.8,3.9s-0.3,2.8-0.8,3.9
		c-0.5,1.1-1.2,1.9-2.1,2.5c-0.9,0.6-1.9,0.9-3.1,0.9C238.7,140.6,237.6,140.3,236.7,139.8z M241.8,136.8c0.5-0.7,0.7-1.9,0.7-3.4
		s-0.2-2.7-0.7-3.4c-0.5-0.7-1.2-1.1-2-1.1c-0.8,0-1.5,0.4-2,1.1c-0.5,0.7-0.7,1.9-0.7,3.4s0.2,2.7,0.7,3.4c0.5,0.7,1.1,1.1,2,1.1
		C240.7,137.9,241.3,137.5,241.8,136.8z"/>
	<path class="st0" d="M253.8,132.9c-0.6-0.7-1-1.6-1-2.8s0.3-2.1,1-2.8c0.6-0.7,1.5-1,2.5-1c1,0,1.9,0.4,2.5,1c0.6,0.7,1,1.6,1,2.8
		s-0.3,2.1-1,2.8c-0.6,0.7-1.5,1-2.5,1C255.3,133.9,254.4,133.6,253.8,132.9z M257.4,131.7c0.3-0.4,0.4-0.9,0.4-1.7
		s-0.1-1.3-0.4-1.7c-0.3-0.4-0.6-0.6-1.1-0.6c-0.4,0-0.8,0.2-1.1,0.6s-0.4,0.9-0.4,1.7s0.1,1.3,0.4,1.6c0.3,0.4,0.6,0.6,1.1,0.6
		C256.7,132.3,257.1,132.1,257.4,131.7z M264.6,126.4h2.4l-9.6,14h-2.4L264.6,126.4z M264,140.1c-0.5-0.3-0.9-0.8-1.2-1.4
		c-0.3-0.6-0.4-1.3-0.4-2c0-0.8,0.1-1.5,0.4-2c0.3-0.6,0.7-1,1.2-1.3c0.5-0.3,1.1-0.5,1.8-0.5c1,0,1.9,0.3,2.5,1s1,1.6,1,2.8
		c0,1.2-0.3,2.1-1,2.8c-0.6,0.7-1.5,1-2.5,1C265.1,140.5,264.5,140.4,264,140.1z M266.9,138.3c0.3-0.4,0.4-0.9,0.4-1.7
		s-0.1-1.3-0.4-1.6c-0.3-0.4-0.6-0.6-1.1-0.6c-0.4,0-0.8,0.2-1.1,0.6c-0.3,0.4-0.4,0.9-0.4,1.7s0.1,1.3,0.4,1.7s0.6,0.6,1.1,0.6
		C266.2,138.9,266.6,138.7,266.9,138.3z"/>
</g>
<g id="Group_86" transform="translate(590.849 1437.155)">
	<g class="st5">
		<path class="st2" d="M-358.8-1419.6v2.6h-10.6v-2.1l5.4-5.1c0.6-0.5,1-1,1.2-1.4c0.2-0.4,0.3-0.8,0.3-1.2c0-0.6-0.2-1-0.6-1.3
			c-0.4-0.3-0.9-0.4-1.7-0.4c-0.6,0-1.2,0.1-1.7,0.3s-0.9,0.6-1.2,1l-2.4-1.5c0.5-0.8,1.3-1.5,2.3-1.9s2.1-0.7,3.3-0.7
			c1,0,2,0.2,2.7,0.5c0.8,0.3,1.4,0.8,1.8,1.4c0.4,0.6,0.7,1.3,0.7,2.2c0,0.8-0.2,1.5-0.5,2.1c-0.3,0.7-0.9,1.4-1.9,2.3l-3.2,3
			H-358.8z"/>
		<path class="st2" d="M-354.6-1417.6c-0.9-0.6-1.6-1.4-2.1-2.5c-0.5-1.1-0.8-2.4-0.8-3.9s0.3-2.8,0.8-3.9c0.5-1.1,1.2-1.9,2.1-2.5
			c0.9-0.6,1.9-0.9,3.1-0.9s2.2,0.3,3.1,0.9c0.9,0.6,1.6,1.4,2.1,2.5c0.5,1.1,0.8,2.4,0.8,3.9s-0.3,2.8-0.8,3.9
			c-0.5,1.1-1.2,1.9-2.1,2.5c-0.9,0.6-1.9,0.9-3.1,0.9S-353.7-1417-354.6-1417.6z M-349.4-1420.6c0.5-0.7,0.7-1.9,0.7-3.4
			s-0.2-2.7-0.7-3.4c-0.5-0.7-1.2-1.1-2-1.1c-0.8,0-1.5,0.4-2,1.1c-0.5,0.7-0.7,1.9-0.7,3.4s0.2,2.7,0.7,3.4s1.2,1.1,2,1.1
			C-350.6-1419.5-349.9-1419.8-349.4-1420.6z"/>
		<path class="st2" d="M-337.5-1424.4c-0.6-0.7-1-1.6-1-2.8s0.3-2.1,1-2.8c0.6-0.7,1.5-1,2.5-1s1.9,0.4,2.5,1c0.6,0.7,1,1.6,1,2.8
			s-0.3,2.1-1,2.8c-0.6,0.7-1.5,1-2.5,1S-336.8-1423.7-337.5-1424.4z M-333.9-1425.6c0.3-0.4,0.4-0.9,0.4-1.7s-0.1-1.3-0.4-1.7
			s-0.6-0.6-1.1-0.6c-0.4,0-0.8,0.2-1.1,0.6s-0.4,0.9-0.4,1.7s0.1,1.3,0.4,1.6c0.3,0.4,0.6,0.6,1.1,0.6
			C-334.5-1425-334.2-1425.2-333.9-1425.6z M-326.6-1431h2.4l-9.6,14h-2.4L-326.6-1431z M-327.3-1417.3c-0.5-0.3-0.9-0.8-1.2-1.4
			c-0.3-0.6-0.4-1.3-0.4-2c0-0.8,0.1-1.5,0.4-2c0.3-0.6,0.7-1,1.2-1.3s1.1-0.5,1.8-0.5c1,0,1.9,0.3,2.5,1c0.6,0.7,1,1.6,1,2.8
			c0,1.2-0.3,2.1-1,2.8c-0.6,0.7-1.5,1-2.5,1C-326.1-1416.8-326.7-1417-327.3-1417.3z M-324.4-1419c0.3-0.4,0.4-0.9,0.4-1.7
			s-0.1-1.3-0.4-1.6c-0.3-0.4-0.6-0.6-1.1-0.6c-0.4,0-0.8,0.2-1.1,0.6c-0.3,0.4-0.4,0.9-0.4,1.7s0.1,1.3,0.4,1.7s0.6,0.6,1.1,0.6
			C-325-1418.4-324.7-1418.6-324.4-1419z"/>
	</g>
</g>
</svg>
