<?xml version="1.0" encoding="UTF-8"?>
<svg width="75px" height="73px" viewBox="0 0 75 73" version="1.1" xmlns="http://www.w3.org/2000/svg" xmlns:xlink="http://www.w3.org/1999/xlink">
    <!-- Generator: Sketch 49.1 (51147) - http://www.bohemiancoding.com/sketch -->
    <title>08.arrow_yellow</title>
    <desc>Created with Sketch.</desc>
    <defs></defs>
    <g id="Design-System" stroke="none" stroke-width="1" fill="none" fill-rule="evenodd">
        <g id="Icons" transform="translate(-1132.000000, -503.000000)" fill="#F6BA41" fill-rule="nonzero">
            <g id="08.arrow_yellow" transform="translate(1169.500000, 539.500000) rotate(90.000000) translate(-1169.500000, -539.500000) translate(1132.000000, 502.000000)">
                <path d="M62.148,33.752 L61.748,33.752 C61.6923877,37.6817157 62.1930151,41.5995375 63.235,45.389 C61.848,42.405 60.559,39.421 59.37,36.338 C59.1447595,35.8315676 58.8440056,35.3622295 58.478,34.946 L56.397,35.346 C56.297,36.738 56.297,38.131 56.297,39.523 C56.3594378,41.6322908 56.6249986,43.7306561 57.09,45.789 C56.495,44.397 56,42.905 55.306,41.413 C55.106,40.613 54.806,39.822 54.513,38.926 C54.313,39.026 54.213,39.126 54.013,39.126 C54.7907682,43.4244026 56.1232351,47.6036562 57.977,51.559 C58.16601,52.0114123 58.3984302,52.4444373 58.671,52.852 C57.878,52.252 56.986,51.46 56.193,50.863 C52.427,47.68 48.859,44.398 45.193,41.016 C41.625,37.634 38.157,34.054 34.787,30.473 C31.517,26.793 27.949,23.312 24.381,19.93 C23.489,19.13 22.597,18.438 21.804,17.742 C20.714,16.747 19.624,15.653 18.633,14.758 L18.533,14.658 C18.4274679,14.5479238 18.3577417,14.4084714 18.333,14.258 C18.1693666,14.1004149 17.9619991,13.9958599 17.738,13.958 L17.638,13.858 L17.238,13.858 C17.4677512,14.1903993 17.6370154,14.5607495 17.738,14.952 C18.2227619,15.7351588 18.8243748,16.4396259 19.522,17.041 L19.422,17.141 C19.4791319,17.1928454 19.5148028,17.2641873 19.522,17.341 C20.022,17.941 20.612,18.535 21.009,19.032 C19.225,17.142 17.342,15.252 15.459,13.263 C12.089,9.682 8.621,6.201 4.859,2.919 C4.066,2.319 3.273,1.527 2.381,0.93 C2.30410534,0.923090445 2.23266444,0.887369996 2.181,0.83 L1.881,1.13 C5.052,4.711 8.323,8.192 11.792,11.673 C13.873,13.762 16.054,16.049 18.234,18.238 C14.864,15.055 11.594,11.872 8.125,8.889 C7.40171738,8.11706573 6.60495444,7.41742816 5.746,6.8 C5.60500362,6.81549521 5.4631167,6.78002349 5.346,6.7 C5.246,6.8 5.246,6.7 5.246,6.7 C5.146,6.7 5.046,6.8 4.846,6.8 C4.846,6.9 4.746,7 4.746,7.2 L15.446,17.345 C16.14,17.945 16.834,18.638 17.428,19.235 C17.228,19.135 17.028,18.935 16.833,18.835 C15.049,17.144 13.364,15.553 11.58,13.862 C9.102,11.574 6.625,9.287 4.048,7.099 L3.948,7.099 C3.40270148,6.48543438 2.80585364,5.91970025 2.164,5.408 C1.87648028,5.22440028 1.57865693,5.05745894 1.272,4.908 L0.972,5.208 C4.00267735,9.06300288 7.27987102,12.7176534 10.783,16.149 C11.774,17.144 12.765,18.039 13.855,19.033 C13.8699638,19.1739598 13.8345374,19.3156655 13.755,19.433 C14.647,20.233 15.539,21.124 16.332,21.721 C21.783,27.191 27.432,32.96 33.576,39.127 C39.522,45.294 46.162,51.759 53.199,58.427 C47.1311946,54.9934649 40.8404818,51.9697134 34.369,49.376 C33.6995292,49.138284 32.9978931,49.0034188 32.288,48.976 L31.594,50.368 C32.5208923,51.1188355 33.4912422,51.8143753 34.5,52.451 C34.2611773,52.3693027 34.0291321,52.2689949 33.806,52.151 C33.6922289,52.0272758 33.5566311,51.9255775 33.406,51.851 L33.306,51.751 C33.1512346,51.844245 32.9823783,51.9117875 32.806,51.951 C32.806,52.251 33.006,52.451 33.206,52.751 L33.406,52.951 C37.568,55.239 41.83,57.626 45.992,59.913 C46.3440946,60.1906989 46.7484459,60.394745 47.181,60.513 C48.866,61.508 50.451,62.403 52.037,63.199 C58.677,66.78 65.317,70.559 71.858,74.637 L73.345,74.837 L73.845,74.637 C74.44,74.237 73.345,70.161 70.575,62.602 C67.701,54.844 66.016,49.871 65.223,47.484 C64.2385864,44.1229044 63.4772624,40.7004542 62.944,37.239 C62.7844401,36.0550269 62.5180194,34.8879302 62.148,33.752 Z" id="Path_72"></path>
            </g>
        </g>
    </g>
</svg>