<svg xmlns="http://www.w3.org/2000/svg" viewBox="1166.961 2691.632 74.002 75.222">
  <defs>
    <style>
      .cls-1 {
        fill: #66d5d6;
        stroke: #66d5d6;
        stroke-miterlimit: 10;
      }
    </style>
  </defs>
  <g id="Symbol_10_2" data-name="Symbol 10 – 2" transform="translate(2212.295 5676.341) rotate(180)">
    <path id="Path_64" data-name="Path 64" class="cls-1" d="M1028.21,626.1a72.809,72.809,0,0,1,2.278-10.245c.793-2.387,2.575-7.36,5.349-15.118,2.774-7.659,3.962-11.737,3.269-12.035l-.5-.2-1.486.2c-6.538,4.177-13.075,7.957-19.811,11.438-1.585.8-3.17,1.691-4.854,2.685a3.341,3.341,0,0,0-1.189.6c-4.259,2.387-8.42,4.675-12.58,6.962l-.2.2c-.2.3-.4.5-.4.8.1.1.3.1.5.2l.1-.1c.2-.1.3-.1.4-.3a3.581,3.581,0,0,0,.693-.3,30.348,30.348,0,0,0-2.873,2.089l.693,1.393a7.024,7.024,0,0,0,2.08-.4,163.74,163.74,0,0,0,18.821-9.051c-7.033,6.664-13.67,13.129-19.613,19.3-6.141,6.167-11.788,11.935-17.236,17.406a28.255,28.255,0,0,0-2.576,2.288c.1.1.1.2.1.4-.991.995-1.981,1.89-3.071,2.884a113.568,113.568,0,0,0-9.807,10.941l.3.3a2.594,2.594,0,0,0,.891-.5c.594-.6,1.288-1.094,1.783-1.691h.1c2.476-2.089,5.052-4.376,7.528-6.763,1.783-1.691,3.467-3.282,5.25-4.973a3.089,3.089,0,0,1,.594-.4c-.693.6-1.387,1.293-1.981,1.89-3.665,3.481-7.132,6.763-10.7,10.145,0,.1.1.2.1.4.1,0,.2.1.4.1,0,0,.1-.1.1,0a.594.594,0,0,1,.4-.1,25.53,25.53,0,0,0,2.377-2.089c3.467-2.984,6.835-6.167,10.1-9.349-2.179,2.188-4.359,4.376-6.439,6.565-3.467,3.481-6.736,6.962-9.906,10.543l.3.3a.306.306,0,0,1,.2-.1c.891-.6,1.684-1.392,2.476-1.989,3.764-3.282,7.231-6.763,10.6-10.344,1.783-1.989,3.665-3.979,5.547-5.769-.4.6-.991,1.094-1.486,1.691a.309.309,0,0,1-.1.2l.1.1a12.32,12.32,0,0,0-1.783,2.089,2.69,2.69,0,0,1-.5,1.094h.4l.1-.1a3.294,3.294,0,0,0,.594-.3.4.4,0,0,1,.2-.4l.1-.1c.991-.995,2.08-1.989,3.17-2.984.892-.7,1.684-1.392,2.575-2.188,3.566-3.382,7.132-6.863,10.4-10.543,3.368-3.581,6.835-7.161,10.4-10.543,3.665-3.481,7.231-6.763,11-9.847.792-.6,1.684-1.392,2.477-1.989a7.594,7.594,0,0,0-.693,1.293,50.494,50.494,0,0,0-3.962,12.433c.2.1.3.1.5.2a14.672,14.672,0,0,1,.792-2.487c.594-1.492,1.189-2.984,1.783-4.376a22.2,22.2,0,0,0-.792,6.266c0,1.392,0,2.785.1,4.177l2.08.4a5.481,5.481,0,0,0,.891-1.393c1.189-3.083,2.476-6.067,3.863-9.051a38.322,38.322,0,0,0-1.486,11.637h.4C1027.715,628.484,1028.012,627.29,1028.21,626.1Z" transform="translate(5.7 2321.5)"/>
  </g>
</svg>
