<svg xmlns="http://www.w3.org/2000/svg" viewBox="603 3440 30 38">
  <defs>
    <style>
      .cls-1 {
        fill: #f6ba41;
      }
    </style>
  </defs>
  <g id="Symbol_5_1" data-name="Symbol 5 – 1" transform="translate(3)">
    <g id="Group_136" data-name="Group 136" transform="translate(600 3440)">
      <path id="Path_76" data-name="Path 76" class="cls-1" d="M27.951,4.659C20.122,4.659,16.683.874,16.537.728a1.986,1.986,0,0,0-3.073,0C13.317.874,9.878,4.659,2.122,4.659A2.1,2.1,0,0,0,0,6.7V17.835a21.2,21.2,0,0,0,7.976,16.67,19.668,19.668,0,0,0,6.439,3.421A1.619,1.619,0,0,0,15,38a1.619,1.619,0,0,0,.585-.073,18.389,18.389,0,0,0,6.439-3.421A21.058,21.058,0,0,0,30,17.908V6.7A2.089,2.089,0,0,0,27.951,4.659ZM25.61,8.59v9.245a17.137,17.137,0,0,1-6.439,13.54,16.383,16.383,0,0,1-4.537,2.475A16.216,16.216,0,0,1,10.1,31.375,16.993,16.993,0,0,1,3.659,17.908V8.59A20.281,20.281,0,0,0,14.634,4.659,20.281,20.281,0,0,0,25.61,8.59Z"/>
    </g>
    <g id="Group_137" data-name="Group 137" transform="translate(605.126 3446.506)">
      <path id="Path_77" data-name="Path 77" class="cls-1" d="M16.373,8.969a20.416,20.416,0,0,1-8.861,3.222A.621.621,0,0,0,7,12.777v7.616a15.964,15.964,0,0,0,5.858,12.449,15.376,15.376,0,0,0,3.661,2.124c.073,0,.146.073.22.073.146,0,.22,0,.293-.073a.522.522,0,0,0,.22-.439V9.482a.616.616,0,0,0-.293-.513A.558.558,0,0,0,16.373,8.969Z" transform="translate(-7 -8.885)"/>
    </g>
  </g>
</svg>
