<svg xmlns="http://www.w3.org/2000/svg" viewBox="877 4520 165 163">
  <defs>
    <style>
      .cls-1 {
        fill: #fff;
      }
    </style>
  </defs>
  <g id="Symbol_3_1" data-name="Symbol 3 – 1" transform="translate(518.595 4578.993)">
    <path id="Path_78" data-name="Path 78" class="cls-1" d="M77.335,162.982a77.909,77.909,0,0,1-33.585-7.889C22.623,144.806,9.468,128.927,3.389,106.557A128.487,128.487,0,0,1,.2,88.581C-1.3,62.616,7.375,40.346,26.011,22.27h0C44.946,4.194,67.369-3,92.882,1.1A76.764,76.764,0,0,1,116.8,9.088l.2.1a81.752,81.752,0,0,1,12.657,10.386A71.94,71.94,0,0,1,148.89,51.032h.2l.4,1.5A89,89,0,0,1,152.677,74.2c.1,1.2.2,2.4.2,3.6l.3-.4,1.495.7a1.682,1.682,0,0,1,.5.2l.3.1c.3-.3.7-.6,1-.9l1.2-1,3.887,2.6v.2l.7-.7,2.79,2.7-.8,1.4c-.6,1-1.2,1.9-1.794,2.9l-.1.1a58.718,58.718,0,0,0-4.983,7.79c-1,2-3.089,6.192-6.278,12.983-4.983,10.586-6.079,11.385-7.973,10.885l-.6-.2-.5-.2-1.495-1.9-.1-.4c-1.4-6.391-3.089-12.983-5.182-19.973-.4-1.4-.9-3-1.4-4.794a10.262,10.262,0,0,1-.4-1.4c-1.2-4.194-2.292-8.489-3.488-12.583l-.1-.2v-.9l.1-.3a3.566,3.566,0,0,1,.6-1.3v-.4l-.2-1.7,4.086-1.2.8.8a9.494,9.494,0,0,1,1.495,2.1l.1.2c.2.4.3.8.5,1.2,0-.8-.1-1.6-.1-2.4-.4-4.794-1.1-8.688-1.893-13.182-.2-1.3-.5-2.6-.7-3.995a124.528,124.528,0,0,0-7.175-19.674l-.1-.1a6.516,6.516,0,0,1-.7-.8,2.09,2.09,0,0,1-.4-.6.758.758,0,0,1-.2-.4l-.1-.1a64.055,64.055,0,0,0-9.468-9.288c-22.423-12.383-44.547-12.084-67.668.9C25.214,37.949,14.949,57.523,16.942,84.187a119.881,119.881,0,0,0,1.993,14.58c.4,1.1.8,2.1,1.2,3.1v.1A70.985,70.985,0,0,0,30.6,120.838l3.388,4.494-4.086-1,1.794,2.9L30,128.428a37.243,37.243,0,0,0,8.87,7.29C53.915,144.407,70.359,147,87.7,143.508l.7-.1.6.3a4.686,4.686,0,0,1,1.2.9,76.206,76.206,0,0,0,18.636-8.688,32.043,32.043,0,0,1,10.663-5.093l3.388-1-1.3,4.993h4.485l-3.887,4.594,3.289-.9-2.491,4.194a34.062,34.062,0,0,1-15.148,13.582A74.113,74.113,0,0,1,77.335,162.982ZM28.8,25.166A81.334,81.334,0,0,0,9.169,54.028,81.993,81.993,0,0,0,4.186,88.282a130.973,130.973,0,0,0,3.089,17.277c5.78,21.172,18.237,36.152,38.269,45.839,20.33,9.587,40.76,9.987,60.792,1.2a31.9,31.9,0,0,0,10.265-7.69l-5.681,1.5,6.577-7.69h-.9l.8-3.1a23.922,23.922,0,0,0-6.079,3.4l-.1.1A77.277,77.277,0,0,1,89.892,148.8l-2.591.8v-1.9a71.931,71.931,0,0,1-50.328-8.489,40.738,40.738,0,0,1-12.358-11.285l-7.474-10.486,7.375,5.493-5.481-8.888,1.794-1.2a73.033,73.033,0,0,1-4.285-9.487c-.4-1-.8-2.1-1.3-3.4l-.1-.2a111.575,111.575,0,0,1-2.093-15.18c-2.192-28.062,9.069-49.434,33.485-63.615,24.117-13.582,48.235-13.881,71.754-.9l.2.2a79.536,79.536,0,0,1,10.165,9.887,7.433,7.433,0,0,1,.9,1.2.1.1,0,0,0,.1.1l.1.1.1.2.1.1a4.863,4.863,0,0,1,.8,1,126.063,126.063,0,0,1,7.474,20.572v.2c.2,1.4.5,2.8.7,4.095A131.232,131.232,0,0,1,140.818,71.3a121.15,121.15,0,0,1,0,13.782l-.6,10.885-3.289-10.386c-.7-2-1.3-3.895-1.993-5.792l2.093,7.49v.1a3.1,3.1,0,0,0,.2.7l.1.2.1.3c.4,1.7.9,3.4,1.3,4.694,1.894,6.591,3.488,12.583,4.883,18.575.7-1.3,1.893-3.5,3.588-7.19,3.289-6.891,5.282-11.185,6.378-13.182.4-.7.7-1.3,1.1-1.9l-1.1-.5c.7-1.9,1.4-3.7,2.192-5.593a21.161,21.161,0,0,0-2.79,3.7l-1-.5a2.184,2.184,0,0,1-.3.5L145.6,99.966l2.392-13.981a23.592,23.592,0,0,0,.4-2.8v-.1a31.014,31.014,0,0,0,.2-8.589v-.2A83.992,83.992,0,0,0,145.9,55.026h-.2l-.4-1.5A67.137,67.137,0,0,0,126.666,22.47a79.305,79.305,0,0,0-12.059-9.787,76.547,76.547,0,0,0-22.622-7.59C67.768,1.1,47.039,7.69,28.8,25.166ZM131.45,76.2h.4v-.3l-.4.1Zm1.794-.6Z" transform="translate(358.37 -58.975)"/>
  </g>
</svg>
