<svg xmlns="http://www.w3.org/2000/svg" viewBox="0 0 389.32 389.32"><defs><style>.cls-1{fill:#ff6f60;}.cls-2{fill:#50b8eb;}.cls-3{fill:#383a73;}.cls-4{fill:#006392;}.cls-5,.cls-6,.cls-7,.cls-8,.cls-9{fill:none;stroke-miterlimit:10;stroke-width:28px;}.cls-5{stroke:#fff;}.cls-6{stroke:#383a73;}.cls-7{stroke:#ff6f60;}.cls-8{stroke:#50b8eb;}.cls-9{stroke:#006392;}</style></defs><title>graph_2</title><g id="Layer_2" data-name="Layer 2"><g id="Layer_2-2" data-name="Layer 2"><path class="cls-1" d="M230.94,60.13v3H218.77V60.75L225,54.88a6.34,6.34,0,0,0,1.34-1.62,2.93,2.93,0,0,0,.34-1.34,1.81,1.81,0,0,0-.65-1.49,3.09,3.09,0,0,0-1.92-.51,4.38,4.38,0,0,0-1.91.4,3.62,3.62,0,0,0-1.43,1.21L218,49.78a6.32,6.32,0,0,1,2.6-2.2,8.65,8.65,0,0,1,3.79-.79,7.65,7.65,0,0,1,3.14.59A4.77,4.77,0,0,1,229.66,49a4.26,4.26,0,0,1,.75,2.52,5.6,5.6,0,0,1-.55,2.46,9.41,9.41,0,0,1-2.14,2.62l-3.7,3.5Z"/><path class="cls-1" d="M235.77,62.45a6.65,6.65,0,0,1-2.45-2.86,10.39,10.39,0,0,1-.88-4.47,10.41,10.41,0,0,1,.88-4.48,6.65,6.65,0,0,1,2.45-2.86,6.91,6.91,0,0,1,7.13,0,6.65,6.65,0,0,1,2.45,2.86,11.7,11.7,0,0,1,0,9,6.59,6.59,0,0,1-2.45,2.86,6.91,6.91,0,0,1-7.13,0ZM241.65,59a7.21,7.21,0,0,0,.84-3.91,7.16,7.16,0,0,0-.84-3.91,2.72,2.72,0,0,0-4.6,0,7.16,7.16,0,0,0-.84,3.91,7.21,7.21,0,0,0,.84,3.91,2.73,2.73,0,0,0,4.6,0Z"/><path class="cls-1" d="M253.49,54.56a5.27,5.27,0,0,1,0-6.47,3.79,3.79,0,0,1,2.89-1.21,3.71,3.71,0,0,1,2.87,1.21,5.27,5.27,0,0,1,0,6.47,3.71,3.71,0,0,1-2.87,1.2A3.78,3.78,0,0,1,253.49,54.56Zm4.12-1.33a4.28,4.28,0,0,0,0-3.82,1.44,1.44,0,0,0-1.23-.64,1.42,1.42,0,0,0-1.22.66,3.24,3.24,0,0,0-.46,1.89,3.27,3.27,0,0,0,.46,1.9,1.47,1.47,0,0,0,2.45,0ZM266,47.07h2.74l-11,16.1H255Zm-.73,15.74a3.72,3.72,0,0,1-1.41-1.55,5.65,5.65,0,0,1,0-4.69A3.66,3.66,0,0,1,265.24,55a4,4,0,0,1,2.06-.55,3.77,3.77,0,0,1,2.89,1.21,5.27,5.27,0,0,1,0,6.47,3.78,3.78,0,0,1-2.89,1.2A4,4,0,0,1,265.24,62.81Zm3.29-2a3.35,3.35,0,0,0,.45-1.9,3.32,3.32,0,0,0-.45-1.89,1.41,1.41,0,0,0-1.23-.66,1.45,1.45,0,0,0-1.22.65,3.28,3.28,0,0,0-.46,1.9,3.32,3.32,0,0,0,.46,1.91,1.45,1.45,0,0,0,1.22.65A1.41,1.41,0,0,0,268.53,60.81Z"/><path class="cls-2" d="M230.68,95.2a4.33,4.33,0,0,1,1.13,3,4.82,4.82,0,0,1-.74,2.59,5.17,5.17,0,0,1-2.24,1.9,8.64,8.64,0,0,1-3.69.71,12.64,12.64,0,0,1-3.35-.45,8.65,8.65,0,0,1-2.79-1.27l1.45-2.86a6.93,6.93,0,0,0,2.12,1.07,8,8,0,0,0,2.48.38,4,4,0,0,0,2.21-.54,1.75,1.75,0,0,0,.8-1.53c0-1.31-1-2-3-2h-1.7V93.8l3.31-3.74H219.8v-3h11.27v2.41l-3.63,4.14A5.41,5.41,0,0,1,230.68,95.2Z"/><path class="cls-2" d="M244.18,95.2a4.3,4.3,0,0,1,1.13,3,4.81,4.81,0,0,1-.74,2.58,5.05,5.05,0,0,1-2.24,1.9,8.64,8.64,0,0,1-3.69.71,12.7,12.7,0,0,1-3.35-.45,8.75,8.75,0,0,1-2.79-1.27L234,98.86a6.66,6.66,0,0,0,2.13,1.07,8,8,0,0,0,2.47.38,4,4,0,0,0,2.21-.54,1.75,1.75,0,0,0,.8-1.53c0-1.31-1-2-3-2h-1.7V93.81l3.31-3.75H233.3v-3h11.27v2.41l-3.63,4.14A5.41,5.41,0,0,1,244.18,95.2Z"/><path class="cls-2" d="M252.47,94.56a4.62,4.62,0,0,1-1.11-3.24,4.55,4.55,0,0,1,1.12-3.23,4,4,0,0,1,5.76,0,5.31,5.31,0,0,1,0,6.47,4.07,4.07,0,0,1-5.77,0Zm4.12-1.33a4.28,4.28,0,0,0,0-3.82,1.48,1.48,0,0,0-2.45,0,3.31,3.31,0,0,0-.46,1.89,3.35,3.35,0,0,0,.46,1.9,1.47,1.47,0,0,0,2.45,0ZM265,87.07h2.74l-11,16.1H254Zm-.72,15.74a3.68,3.68,0,0,1-1.42-1.55,5.75,5.75,0,0,1,0-4.69A3.62,3.62,0,0,1,264.23,95a3.94,3.94,0,0,1,2.06-.55,3.75,3.75,0,0,1,2.88,1.21,5.23,5.23,0,0,1,0,6.47,3.74,3.74,0,0,1-2.88,1.2A3.93,3.93,0,0,1,264.23,102.81Zm3.29-2a3.44,3.44,0,0,0,.44-1.9,3.41,3.41,0,0,0-.44-1.89,1.41,1.41,0,0,0-1.23-.66,1.43,1.43,0,0,0-1.22.65,3.21,3.21,0,0,0-.46,1.9,3.24,3.24,0,0,0,.46,1.91,1.47,1.47,0,0,0,2.45,0Z"/><path class="cls-3" d="M228.9,133.69a4.88,4.88,0,0,1,2,1.76,4.75,4.75,0,0,1,.73,2.63,5,5,0,0,1-.8,2.83,5.32,5.32,0,0,1-2.2,1.88,7.28,7.28,0,0,1-3.09.65,6.83,6.83,0,0,1-5.29-2.07,8.37,8.37,0,0,1-1.91-5.91,9.9,9.9,0,0,1,1-4.69,7,7,0,0,1,2.89-3,8.89,8.89,0,0,1,4.29-1,10.51,10.51,0,0,1,2.47.29,6.77,6.77,0,0,1,2,.81l-1.38,2.74a5.29,5.29,0,0,0-3-.8A4.33,4.33,0,0,0,223.4,131a5,5,0,0,0-1.29,3.47,5.38,5.38,0,0,1,4-1.42A6.36,6.36,0,0,1,228.9,133.69ZM227.27,140a2.16,2.16,0,0,0,.75-1.74,2.2,2.2,0,0,0-.75-1.76,2.87,2.87,0,0,0-2-.66,3,3,0,0,0-2,.68,2.33,2.33,0,0,0,0,3.46,3.07,3.07,0,0,0,2.07.67A2.84,2.84,0,0,0,227.27,140Z"/><path class="cls-3" d="M236.32,142.45a6.65,6.65,0,0,1-2.45-2.86,11.76,11.76,0,0,1,0-9,6.58,6.58,0,0,1,2.45-2.86,6.91,6.91,0,0,1,7.13,0,6.63,6.63,0,0,1,2.44,2.86,11.7,11.7,0,0,1,0,9,6.71,6.71,0,0,1-9.58,2.86ZM242.2,139a9.52,9.52,0,0,0,0-7.82,2.72,2.72,0,0,0-4.6,0,9.52,9.52,0,0,0,0,7.82,2.73,2.73,0,0,0,4.6,0Z"/><path class="cls-3" d="M254.05,134.56a5.23,5.23,0,0,1,0-6.47,4,4,0,0,1,5.76,0,5.31,5.31,0,0,1,0,6.47,4.06,4.06,0,0,1-5.76,0Zm4.11-1.33a4.28,4.28,0,0,0,0-3.82,1.48,1.48,0,0,0-2.45,0,3.31,3.31,0,0,0-.46,1.89,3.35,3.35,0,0,0,.46,1.9,1.47,1.47,0,0,0,2.45,0Zm8.36-6.16h2.74l-11,16.1h-2.74Zm-.72,15.74a3.68,3.68,0,0,1-1.42-1.55,5.75,5.75,0,0,1,0-4.69A3.62,3.62,0,0,1,265.8,135a3.94,3.94,0,0,1,2.06-.55,3.75,3.75,0,0,1,2.88,1.21,5.23,5.23,0,0,1,0,6.47,3.74,3.74,0,0,1-2.88,1.2A3.93,3.93,0,0,1,265.8,142.81Zm3.29-2a3.35,3.35,0,0,0,.45-1.9,3.32,3.32,0,0,0-.45-1.89,1.41,1.41,0,0,0-1.23-.66,1.43,1.43,0,0,0-1.22.65,3.21,3.21,0,0,0-.46,1.9,3.24,3.24,0,0,0,.46,1.91,1.47,1.47,0,0,0,2.45,0Z"/><path class="cls-4" d="M227.27,7.07v16.1h-3.72V10.05h-3.22v-3Z"/><path class="cls-4" d="M244.81,19.79h-2.62v3.38h-3.63V19.79h-8.68v-2.5l7.6-10.21h3.91l-7,9.68h4.32v-3h3.52v3h2.62Z"/><path class="cls-4" d="M251.36,14.55a4.54,4.54,0,0,1-1.12-3.23,4.55,4.55,0,0,1,1.12-3.23,4,4,0,0,1,5.76,0,4.59,4.59,0,0,1,1.1,3.23,4.61,4.61,0,0,1-1.1,3.24,4,4,0,0,1-5.76,0Zm4.11-1.32a3.32,3.32,0,0,0,.45-1.91,3.35,3.35,0,0,0-.45-1.91,1.47,1.47,0,0,0-2.44,0,3.23,3.23,0,0,0-.47,1.89,3.27,3.27,0,0,0,.47,1.9,1.46,1.46,0,0,0,2.44,0Zm8.37-6.16h2.73l-11,16.1h-2.74Zm-.73,15.74a3.6,3.6,0,0,1-1.41-1.55,5.15,5.15,0,0,1-.51-2.35,5.11,5.11,0,0,1,.51-2.34A3.54,3.54,0,0,1,263.11,15a3.94,3.94,0,0,1,2.06-.55,3.75,3.75,0,0,1,2.88,1.21,4.55,4.55,0,0,1,1.12,3.23,4.58,4.58,0,0,1-1.12,3.24,3.74,3.74,0,0,1-2.88,1.2A3.93,3.93,0,0,1,263.11,22.81Zm3.29-2a3.35,3.35,0,0,0,.45-1.9A3.32,3.32,0,0,0,266.4,17a1.41,1.41,0,0,0-1.23-.66A1.43,1.43,0,0,0,264,17a3.21,3.21,0,0,0-.46,1.9,3.24,3.24,0,0,0,.46,1.91,1.43,1.43,0,0,0,1.22.65A1.41,1.41,0,0,0,266.4,20.81Z"/><path class="cls-5" d="M252.94,194.66a58.28,58.28,0,1,1-58.28-58.28"/><path class="cls-6" d="M176.65,250.1a58.29,58.29,0,0,1,18-113.72"/><path class="cls-5" d="M334.53,194.66A139.87,139.87,0,1,1,194.66,54.79"/><path class="cls-7" d="M81.5,112.44A139.67,139.67,0,0,1,194.66,54.79"/><path class="cls-5" d="M293.73,194.66a99.07,99.07,0,1,1-99.07-99.07"/><path class="cls-8" d="M95.59,194.66a99.06,99.06,0,0,1,99.07-99.07"/><path class="cls-5" d="M375.32,194.66A180.67,180.67,0,1,1,194.66,14"/><path class="cls-9" d="M83.43,52.29A179.89,179.89,0,0,1,194.66,14"/></g></g></svg>