<svg id="Symbol_18_1" data-name="Symbol 18 – 1" xmlns="http://www.w3.org/2000/svg" viewBox="370 1437 390 390">
  <defs>
    <style>
      .cls-1, .cls-8 {
        fill: #383a73;
      }

      .cls-2 {
        fill: #fff;
      }

      .cls-3, .cls-9 {
        fill: #f6ba41;
      }

      .cls-4, .cls-6 {
        fill: #ff9783;
      }

      .cls-5, .cls-7 {
        fill: #66d5d6;
      }

      .cls-6, .cls-7, .cls-8, .cls-9 {
        font-size: 21px;
        font-family: Montserrat-Bold, Montserrat;
        font-weight: 700;
      }
    </style>
  </defs>
  <g id="round_graph" transform="translate(370 1437)">
    <g id="Group_73" data-name="Group 73" transform="translate(122.52 122.588)">
      <path id="Path_56" data-name="Path 56" class="cls-1" d="M555.83,1356.523a72.412,72.412,0,1,1,0-144.823v28.043a44.368,44.368,0,1,0,0,88.737,43.775,43.775,0,0,0,25.746-8.213l16.329,22.835A71.8,71.8,0,0,1,555.83,1356.523Z" transform="translate(-483.4 -1211.7)"/>
    </g>
    <g id="Group_74" data-name="Group 74" transform="translate(220.696 194.399)">
      <path id="Path_57" data-name="Path 57" class="cls-2" d="M628.084,1284a72.338,72.338,0,0,1-30.354,58.891L581.4,1320.057A44.562,44.562,0,0,0,600.034,1284v-.6h28.05Z" transform="translate(-581.4 -1283.4)"/>
    </g>
    <g id="Group_76" data-name="Group 76" transform="translate(9.116)">
      <g id="Group_75" data-name="Group 75">
        <path id="Path_58" data-name="Path 58" class="cls-3" d="M396.948,1233.522l-26.748-8.513A195.245,195.245,0,0,1,556.033,1089.3v28.043a165.409,165.409,0,0,0-99.378,32.75A168.636,168.636,0,0,0,396.948,1233.522Z" transform="translate(-370.2 -1089.3)"/>
      </g>
    </g>
    <g id="Group_77" data-name="Group 77" transform="translate(0 135.709)">
      <path id="Path_59" data-name="Path 59" class="cls-2" d="M751.1,1283.591v.6c0,107.465-87.457,195-195.05,194.9-107.493,0-195.05-87.434-194.95-195a194.5,194.5,0,0,1,9.217-59.291l26.748,8.513a166.965,166.965,0,0,0-7.814,50.778c0,92.042,74.834,166.957,166.9,166.957s167-74.815,167-166.857v-.6Z" transform="translate(-361.1 -1224.8)"/>
    </g>
    <g id="Group_79" data-name="Group 79" transform="translate(76.037 40.963)">
      <g id="Group_78" data-name="Group 78">
        <path id="Path_60" data-name="Path 60" class="cls-4" d="M458.639,1204.114,437,1186.286A153.686,153.686,0,0,1,555.913,1130.2v28.043A125.721,125.721,0,0,0,458.639,1204.114Z" transform="translate(-437 -1130.2)"/>
      </g>
    </g>
    <g id="Group_80" data-name="Group 80" transform="translate(40.773 97.049)">
      <path id="Path_61" data-name="Path 61" class="cls-2" d="M710.153,1283.65v.6c0,84.931-69.124,154.137-154.177,154.137-84.952,0-154.177-69.106-154.177-154.137a154.22,154.22,0,0,1,35.263-98.051l21.639,17.828a126.514,126.514,0,0,0-28.752,80.223c0,69.507,56.6,126.094,126.126,126.094S682.2,1353.758,682.2,1284.251v-.6Z" transform="translate(-401.8 -1186.2)"/>
    </g>
    <g id="Group_81" data-name="Group 81" transform="translate(95.171 194.299)">
      <path id="Path_62" data-name="Path 62" class="cls-2" d="M669.182,1284A113.28,113.28,0,0,1,456.1,1337.583l24.744-13.321A85.286,85.286,0,0,0,641.232,1283.9v-.6h28.05A2.64,2.64,0,0,0,669.182,1284Z" transform="translate(-456.1 -1283.3)"/>
    </g>
    <g id="Group_82" data-name="Group 82" transform="translate(81.647 81.726)">
      <path id="Path_63" data-name="Path 63" class="cls-5" d="M456.024,1337.757A113.349,113.349,0,0,1,555.9,1170.9v28.043a85.218,85.218,0,0,0-75.135,125.493Z" transform="translate(-442.6 -1170.9)"/>
    </g>
  </g>
  <g id="Group_84" data-name="Group 84" transform="translate(593.011 1477.216)">
    <text id="_14_" data-name="14 %" class="cls-6" transform="matrix(1, 0, 0, 1, 0.001, 20.043)"><tspan x="0" y="0">14 %</tspan></text>
  </g>
  <g id="Group_85" data-name="Group 85" transform="translate(591.82 1517.278)">
    <text id="_33_" data-name="33 %" class="cls-7" transform="matrix(1, 0, 0, 1, 0.001, 20.043)"><tspan x="0" y="0">33 %</tspan></text>
  </g>
  <text id="_60_" data-name="60 %" class="cls-8" transform="matrix(1, 0, 0, 1, 590.296, 1577.382)"><tspan x="0" y="0">60 %</tspan></text>
  <g id="Group_86" data-name="Group 86" transform="translate(590.849 1437.155)">
    <text id="_20_" data-name="20 %" class="cls-9" transform="matrix(1, 0, 0, 1, 0.001, 20.043)"><tspan x="0" y="0">20 %</tspan></text>
  </g>
</svg>
