<svg id="Group_240" data-name="Group 240" xmlns="http://www.w3.org/2000/svg" viewBox="1330 1385 300 330">
  <defs>
    <style>
      .cls-1 {
        fill: #f2f5f7;
      }

      .cls-2 {
        fill: #1f2431;
      }

      .cls-3 {
        fill: #fbe3b3;
      }

      .cls-4 {
        fill: #c1e3d8;
      }

      .cls-5 {
        fill: #fff;
      }
    </style>
  </defs>
  <path id="Path_16" data-name="Path 16" class="cls-1" d="M1484.668,1165.015c6.8-5.6,5.7-18.2-1.7-45.508s18.2-43.808,52.386-42.707c34.091,1.1,39.889,4.1,46.088,30.205,5.7,23.9,2.8,40.407,19.295,41.007s77.979-16.5,61.383,25.1c-19.495,49.008-14.7,76.113.8,107.519,13,26.3,9.1,38.107-59.684,31.906s-67.882-24.7-92.975-1.2c-24.993,23.5-43.788,74.213-73.98,38.907s-15.9-71.712-42.089-86.015c-26.193-14.2-39.289-54.109-3.4-59.21,35.79-5.1,29.592-20.3,30.192-44.008s.6-63.011,24.993-40.807C1468.873,1140.811,1477.771,1170.516,1484.668,1165.015Z" transform="translate(-38.812 329.029)"/>
  <g id="Group_14" data-name="Group 14" transform="translate(1524.036 1497.944)">
    <path id="Path_17" data-name="Path 17" class="cls-1" d="M1573.6,1188.9l-9.5-17.1,2.3,16.3Z" transform="translate(-1562.9 -1168.899)"/>
    <g id="Group_13" data-name="Group 13">
      <g id="Group_12" data-name="Group 12">
        <path id="Path_18" data-name="Path 18" class="cls-2" d="M1573.7,1188.6s.6,1.8-3.9-5.8c-.7-1.2-1.7-2.8-2.7-4.7-.5-.9-1.1-1.9-1.7-2.9l-.2-.3h0v.1h0l.2,1.1c.2,1.4.4,2.9.6,4.3s.4,2.8.5,4.1a13.672,13.672,0,0,1,.2,1.9c0,.3.1.6.1.9v.5a5.847,5.847,0,0,0,1,.1c.4.1.9.1,1.3.2q1.2.15,2.1.3a14.493,14.493,0,0,1,2.3.5c.2.1-.4.1-1.7.1-.6,0-1.4-.1-2.4-.1-.5,0-1-.1-1.5-.1a15.026,15.026,0,0,1-2-.2c-.4-2.3-.8-5-1.3-7.9-.2-1.4-.4-2.8-.6-4.3-.4-2.5-.7-5-1.1-7.5,1.7,3.1,3.4,6.2,5,9,1.1,2,2.1,3.8,2.9,5.4C1572.7,1186.3,1573.8,1188.4,1573.7,1188.6Z" transform="translate(-1562.9 -1168.9)"/>
      </g>
    </g>
  </g>
  <g id="Group_17" data-name="Group 17" transform="translate(1518.956 1487.343)">
    <ellipse id="Ellipse_1" data-name="Ellipse 1" class="cls-3" cx="4.298" cy="6.501" rx="4.298" ry="6.501" transform="matrix(0.985, -0.175, 0.175, 0.985, 0, 1.506)"/>
    <g id="Group_16" data-name="Group 16" transform="translate(0.306 0.55)">
      <g id="Group_15" data-name="Group 15">
        <path id="Path_19" data-name="Path 19" class="cls-2" d="M1568.1,1164.5a7.615,7.615,0,0,1,.3,3,6.967,6.967,0,0,1-1.2,3.5,4.727,4.727,0,0,1-2,1.6,4.139,4.139,0,0,1-2.9-.1,6.789,6.789,0,0,1-3.7-4.4,9.439,9.439,0,0,1,.1-6.2,5.32,5.32,0,0,1,2.1-2.6,3.067,3.067,0,0,1,3.2,0,5.752,5.752,0,0,1,2,2.4,8.153,8.153,0,0,1,.6,3.1,7.623,7.623,0,0,0-2-4,3.064,3.064,0,0,0-1.9-.9,2.271,2.271,0,0,0-1.8.9,7.135,7.135,0,0,0-1.3,4.8,7.564,7.564,0,0,0,1.8,4.7,3.894,3.894,0,0,0,2,1.3,2.755,2.755,0,0,0,2.2-.3,5.87,5.87,0,0,0,2.3-3.2,10.328,10.328,0,0,0,.4-2.7A3.241,3.241,0,0,1,1568.1,1164.5Z" transform="translate(-1558.125 -1158.85)"/>
      </g>
    </g>
  </g>
  <g id="Group_24" data-name="Group 24" transform="translate(1509.97 1487.17)">
    <g id="Group_20" data-name="Group 20" transform="translate(0 10.575)">
      <path id="Path_20" data-name="Path 20" class="cls-1" d="M1548.9,1189.1l9.1-17.3-1.9,16.3Z" transform="translate(-1548.83 -1168.699)"/>
      <g id="Group_19" data-name="Group 19">
        <g id="Group_18" data-name="Group 18">
          <path id="Path_21" data-name="Path 21" class="cls-2" d="M1549.2,1189s-1.2,1.5,2.7-6.5c.6-1.3,1.5-2.9,2.4-4.8q.75-1.35,1.5-3c1-1.9,2-3.9,3.1-6-.4,3.8-.9,7.8-1.3,11.7-.4,3-.7,5.8-1,8.2-.6.1-1.2.1-1.8.2-.4,0-.9.1-1.3.1-.8.1-1.5.1-2.2.2-1.2.1-2.1.1-2.4.1-.3-.1.4-.2,1.6-.5.6-.1,1.4-.3,2.3-.4.8-.1,1.8-.3,2.8-.5v-.6c0-.3.1-.6.1-.9.1-.6.1-1.2.2-1.9.1-1.3.3-2.7.4-4.1s.3-2.8.4-4.3l.1-1.1v-.1h0l-.2.4c-.6,1.1-1.1,2.1-1.6,3.1-1.1,2-2,3.8-2.9,5.4C1550.6,1186.9,1549.4,1189,1549.2,1189Z" transform="translate(-1548.83 -1168.7)"/>
        </g>
      </g>
    </g>
    <g id="Group_23" data-name="Group 23" transform="translate(4.568 0)">
      <ellipse id="Ellipse_2" data-name="Ellipse 2" class="cls-3" cx="6.501" cy="4.298" rx="6.501" ry="4.298" transform="translate(0.155 12.86) rotate(-81.524)"/>
      <g id="Group_22" data-name="Group 22" transform="translate(0 0.073)">
        <g id="Group_21" data-name="Group 21">
          <path id="Path_22" data-name="Path 22" class="cls-2" d="M1555.2,1164.8v.7a7.574,7.574,0,0,0,.2,1.9,6.849,6.849,0,0,0,1.1,2.5,2.031,2.031,0,0,0,2.6.7,5.35,5.35,0,0,0,2.6-3.2,9.077,9.077,0,0,0,.4-5.2,3.97,3.97,0,0,0-1.4-2.4,2.928,2.928,0,0,0-2.9-.5,5.557,5.557,0,0,0-2.7,2.1,11.44,11.44,0,0,0-1.7,3.3,8.921,8.921,0,0,1,2.6-5.2,4.853,4.853,0,0,1,3.1-1.3,3.971,3.971,0,0,1,3.1,1.6,5.649,5.649,0,0,1,1.2,2.9,7.58,7.58,0,0,1,0,3,8.276,8.276,0,0,1-2.5,5,4.381,4.381,0,0,1-2.2,1.2,3.285,3.285,0,0,1-2.2-.5,5.389,5.389,0,0,1-1.7-3.1,6.364,6.364,0,0,1,0-2.4C1555.1,1165.1,1555.2,1164.8,1555.2,1164.8Z" transform="translate(-1553.4 -1158.2)"/>
        </g>
      </g>
    </g>
  </g>
  <g id="Group_27" data-name="Group 27" transform="translate(1508.14 1513.071)">
    <path id="Path_23" data-name="Path 23" class="cls-1" d="M1547,1186.1c3.3.4,53.586-10.2,69.181,27.8,6.2,15.2,11.5,22.8,11.5,22.8" transform="translate(-1547 -1184.023)"/>
    <g id="Group_26" data-name="Group 26" transform="translate(0)">
      <g id="Group_25" data-name="Group 25">
        <path id="Path_24" data-name="Path 24" class="cls-2" d="M1547.1,1185.4h.5a13.688,13.688,0,0,0,1.6-.2c1.5-.2,3.6-.5,6.4-.7a87.538,87.538,0,0,1,23.494.7,61.27,61.27,0,0,1,15.4,4.7,49.607,49.607,0,0,1,7.6,4.6,45.655,45.655,0,0,1,6.8,6.4,40.407,40.407,0,0,1,5.3,8.1,93.49,93.49,0,0,1,3.8,9.2c1.2,3.1,2.6,6.3,4,9.5,1.5,3.2,3,6.3,4.8,9.5a105.7,105.7,0,0,1-7.8-14.6c-1.2-2.6-2.4-5.3-3.5-8-.6-1.3-1.2-2.7-1.8-4l-1-1.9-.5-1-.6-.9-1.2-1.8c-.4-.6-.9-1.2-1.3-1.7a29.805,29.805,0,0,0-2.9-3.3,43.518,43.518,0,0,0-6.7-5.5,45.64,45.64,0,0,0-7.5-4.1c-1.3-.6-2.6-1-3.9-1.5-1.3-.4-2.6-.9-3.9-1.2a74.129,74.129,0,0,0-14.7-2.5,99.23,99.23,0,0,0-12-.2c-3.4.1-6.1.3-7.9.5a17.853,17.853,0,0,1-2.1.1h-.5C1547.2,1185.4,1547.1,1185.4,1547.1,1185.4Z" transform="translate(-1547 -1184.023)"/>
      </g>
    </g>
  </g>
  <g id="Group_30" data-name="Group 30" transform="translate(1505.141 1519.892)">
    <path id="Path_25" data-name="Path 25" class="cls-4" d="M1544.1,1194.3c4.4-.4,45.288-12.6,62.783,19.7,11.3,20.8,22.894,39.207,22.894,59.61,0,35.406-85.677,22.9-85.677,22.9" transform="translate(-1544 -1190.844)"/>
    <g id="Group_29" data-name="Group 29">
      <g id="Group_28" data-name="Group 28">
        <path id="Path_26" data-name="Path 26" class="cls-2" d="M1544,1193.6a5.594,5.594,0,0,0,1.2-.2c.8-.2,2-.4,3.6-.7a97.106,97.106,0,0,1,14.1-1.8,60.192,60.192,0,0,1,22.194,2.9,40.123,40.123,0,0,1,12.2,6.8,40.812,40.812,0,0,1,10,12q3.9,7.051,8.1,14.7c2.8,5.1,5.6,10.5,8.1,16.3a85.146,85.146,0,0,1,5.9,18.5c.1.8.3,1.7.4,2.5l.2,1.2.1,1.3a21.063,21.063,0,0,1,.2,2.5,22.613,22.613,0,0,0,.1,2.6,19.186,19.186,0,0,1-2.1,10.2,21.824,21.824,0,0,1-7.4,7.7,39.228,39.228,0,0,1-9.8,4.4,91.133,91.133,0,0,1-21.594,3.6,211.191,211.191,0,0,1-22.494-.1c-7.6-.5-15.2-1.3-22.794-2.5a254.684,254.684,0,0,0,35.69,2.1,134.809,134.809,0,0,0,18.9-1.5c6.3-1,12.7-2.5,18.4-5.4a26.594,26.594,0,0,0,7.6-5.7,16.547,16.547,0,0,0,4-8.3,18.544,18.544,0,0,0,.2-4.7,19.28,19.28,0,0,0-.1-2.4l-.2-2.4-.1-1.2-.2-1.2-.4-2.4a39.936,39.936,0,0,0-1.1-4.7c-3.3-12.3-9.3-23.4-14.8-33.706-1.4-2.6-2.8-5.1-4.1-7.6-.7-1.3-1.3-2.5-2-3.7a16.155,16.155,0,0,1-1-1.8c-.4-.6-.8-1.1-1.2-1.7a42.835,42.835,0,0,0-11.2-10.9,46.963,46.963,0,0,0-13-5.5,61.6,61.6,0,0,0-12.1-1.7,87.276,87.276,0,0,0-17.4,1.2c-2,.3-3.6.6-4.6.8A9.761,9.761,0,0,1,1544,1193.6Z" transform="translate(-1544 -1190.844)"/>
      </g>
    </g>
  </g>
  <g id="Group_33" data-name="Group 33" transform="translate(1551.728 1540.552)">
    <g id="Group_32" data-name="Group 32">
      <g id="Group_31" data-name="Group 31">
        <path id="Path_27" data-name="Path 27" class="cls-2" d="M1590.6,1211.5a31.607,31.607,0,0,1,3,5.7,37.893,37.893,0,0,1,1.9,6.6,22.063,22.063,0,0,1,0,8.1,70.2,70.2,0,0,0-2.5-13.1c-.6-2.1-1.1-3.9-1.5-5.2C1590.9,1212.3,1590.6,1211.5,1590.6,1211.5Z" transform="translate(-1590.6 -1211.5)"/>
      </g>
    </g>
  </g>
  <path id="Path_28" data-name="Path 28" class="cls-5" d="M1544.1,1188.9c2.1-.4,8.9-4.3,24.793-2.4s33.291,4.1,41.389,23c10,23.3,21.094,35.306,16.6,36.807-1.7.6-2.6-.7-4.5-7.3s-13.3-30.805-22.294-37.307c-9-6.6-18.895-15.6-51.186-10C1544.1,1194.3,1544.1,1188.9,1544.1,1188.9Z" transform="translate(-38.859 329.048)"/>
  <g id="Group_36" data-name="Group 36" transform="translate(1533.233 1538.452)">
    <g id="Group_35" data-name="Group 35">
      <g id="Group_34" data-name="Group 34">
        <path id="Path_29" data-name="Path 29" class="cls-2" d="M1573.3,1209.4a24.6,24.6,0,0,1,.4,3.7,27.541,27.541,0,0,1-.2,3.9,22.322,22.322,0,0,1-.4,2.3,19.353,19.353,0,0,0-.4,2.7,12.223,12.223,0,0,1-.6-4.2c0-1.4.2-2.9.3-4.1C1572.8,1211.3,1573.3,1209.4,1573.3,1209.4Z" transform="translate(-1572.1 -1209.4)"/>
      </g>
    </g>
  </g>
  <g id="Group_39" data-name="Group 39" transform="translate(1564.825 1598.162)">
    <g id="Group_38" data-name="Group 38">
      <g id="Group_37" data-name="Group 37">
        <path id="Path_30" data-name="Path 30" class="cls-2" d="M1603.7,1286.8a5.19,5.19,0,0,0,.5-.3c.3-.2.8-.4,1.4-.7,1.2-.6,3-1.4,5-2.5a25.08,25.08,0,0,0,6.3-5,18.2,18.2,0,0,0,4.1-9.2,15.142,15.142,0,0,1-2,8.6,16.6,16.6,0,0,1-6.5,5.9,33.251,33.251,0,0,1-6.2,2.5c-.8.2-1.5.4-1.9.5S1603.7,1286.8,1603.7,1286.8Z" transform="translate(-1603.7 -1269.1)"/>
      </g>
    </g>
  </g>
  <g id="Group_43" data-name="Group 43" transform="translate(1496.343 1479.241)">
    <g id="Group_42" data-name="Group 42">
      <g id="Group_41" data-name="Group 41">
        <g id="Group_40" data-name="Group 40">
          <path id="Path_31" data-name="Path 31" class="cls-2" d="M1535.2,1150.3a.774.774,0,0,0,.3-.1h0l.1.1c0,.1.1.2.2.3s.2.4.4.7.4.6.7,1c1,1.6,2.5,3.9,4.2,6.9a166.39,166.39,0,0,1,12,26.8,257.407,257.407,0,0,1,10.6,41.107,340.178,340.178,0,0,1,5,50.209c-1.7-12.7-3.4-27.3-6.1-41.807a394.106,394.106,0,0,0-9.6-42.007A219.62,219.62,0,0,0,1541.5,1162c-1.8-3.8-3.3-6.9-4.5-8.9-.5-1-1-1.8-1.3-2.3a1.692,1.692,0,0,1-.2-.5c0-.1,0-.1-.1-.1h0c.1,0-.2,0-.2.1Z" transform="translate(-1535.2 -1150.2)"/>
        </g>
      </g>
    </g>
    <path id="Path_32" data-name="Path 32" class="cls-2" d="M1574.6,1285.9c-.6,6.5-3.7,11.6-7,11.3s1.1-5.2,1.7-11.8-2.8-12.2.5-11.9S1575.2,1279.3,1574.6,1285.9Z" transform="translate(-1535.208 -1150.179)"/>
  </g>
  <g id="Group_46" data-name="Group 46" transform="translate(1468.822 1606.237)">
    <path id="Path_33" data-name="Path 33" class="cls-5" d="M1511.2,1366.415c13.5-25.9-30.292-104.318,31.192-85.315C1542.491,1281.2,1525.7,1338.81,1511.2,1366.415Z" transform="translate(-1507.671 -1277.174)"/>
    <g id="Group_45" data-name="Group 45">
      <g id="Group_44" data-name="Group 44">
        <path id="Path_34" data-name="Path 34" class="cls-2" d="M1512,1365.915a6.121,6.121,0,0,1-.4.6c-.1.1-.1-.1.4-1.5a33.233,33.233,0,0,0,1.6-9.3c.3-5.1-.3-12.4-2-22.9-.8-5.2-2-11.7-2.9-19a106.33,106.33,0,0,1-1-11.7,41.368,41.368,0,0,1,1.3-12.9,17.917,17.917,0,0,1,3.2-6.3,14.126,14.126,0,0,1,5.9-4.3,21.841,21.841,0,0,1,7.1-1.4,43.435,43.435,0,0,1,7.2.4,54.381,54.381,0,0,1,7,1.5,8.433,8.433,0,0,1,1.7.5l2.6.8.4.1c0,.1-.1.3-.1.4l-.2.8-.4,1.4-.5,1.7c-1.3,4.5-2.7,8.9-4.1,13.3-5.6,17.5-11.4,33.906-16.4,46.208-.6,1.5-1.2,3-1.8,4.4s-1.2,2.7-1.8,4c-1.1,2.5-2.2,4.7-3.1,6.6s-1.8,3.5-2.4,4.6c-.7,1.2-1.2,2-1.5,2.5-.6.9.3-1.3,2.4-5.9,2-4.6,4.9-11.6,8.1-20.3s6.9-19.2,10.6-30.705c1.9-5.7,3.7-11.7,5.6-17.8.9-3,1.8-6.1,2.8-9.2l.1-.4h0l-1.9-.5-2.3-.6-2.3-.5a37.344,37.344,0,0,0-9.4-.8,21.166,21.166,0,0,0-4.5.7,13.222,13.222,0,0,0-4,1.8,14.21,14.21,0,0,0-5.1,7.1,33.2,33.2,0,0,0-1.5,8.9,111.755,111.755,0,0,0,1.1,17.6c.7,5.6,1.6,11,2.3,16s1.2,9.6,1.5,13.7a78.992,78.992,0,0,1,0,10.9C1514.1,1362.315,1512.3,1365.715,1512,1365.915Z" transform="translate(-1507.671 -1277.174)"/>
      </g>
    </g>
  </g>
  <g id="Group_50" data-name="Group 50" transform="translate(1419.825 1480.041)">
    <g id="Group_49" data-name="Group 49" transform="translate(2.339)">
      <g id="Group_48" data-name="Group 48">
        <g id="Group_47" data-name="Group 47">
          <path id="Path_35" data-name="Path 35" class="cls-2" d="M1505.488,1151a.775.775,0,0,1-.1.3c0,.1-.1.2-.2.3s-.1.2-.2.3q-.45.75-1.2,1.8c-1.1,1.5-2.6,3.8-4.4,6.7a188.9,188.9,0,0,0-13.3,26,335.866,335.866,0,0,0-13.9,40.407c-4.3,15.4-7.9,32.406-11.2,50.109.6-6.5,1.4-13.5,2.5-20.8.5-3.6,1.2-7.3,1.9-11s1.5-7.4,2.3-11.1a261.756,261.756,0,0,1,13.3-42.007,166.673,166.673,0,0,1,16.1-30.005c2.4-3.5,4.5-6.2,6-8,.7-.9,1.3-1.7,1.7-2.2C1505.188,1151.7,1505.488,1151,1505.488,1151Z" transform="translate(-1461 -1151)"/>
        </g>
      </g>
    </g>
    <path id="Path_36" data-name="Path 36" class="cls-2" d="M1458.8,1286.1c.7,6.5,4,11.5,7.3,11.1s-1.2-5.2-1.9-11.7,2.5-12.3-.8-11.9C1460.1,1273.9,1458.1,1279.5,1458.8,1286.1Z" transform="translate(-1458.661 -1150.979)"/>
  </g>
  <g id="Group_53" data-name="Group 53" transform="translate(1454.646 1609.664)">
    <path id="Path_37" data-name="Path 37" class="cls-5" d="M1493.7,1281.2h17.6c1.1,24,8.5,62.611,0,85.315C1513.995,1359.213,1498.6,1296.1,1493.7,1281.2Z" transform="translate(-1493.491 -1280.6)"/>
    <g id="Group_52" data-name="Group 52">
      <g id="Group_51" data-name="Group 51">
        <path id="Path_38" data-name="Path 38" class="cls-2" d="M1494.4,1281.6s-2.1-.2.7-.4c1.4-.1,4-.2,8.8-.4,1.2,0,2.5-.1,3.9-.1a18.479,18.479,0,0,0,2.3-.1h1.6c.1,0,0,.1,0,.2,0,.6.1,1.2.1,1.7.2,3.5.7,7.6,1.2,12.5.8,7.9,2.2,18.8,2.9,31.306a162.08,162.08,0,0,1,.2,19.8c-.4,6.9-1.3,14-3.8,20.8l-2.3-.8c0-.2.1-.4.1-.7l.1-.8v-1.8c0-1.2-.2-2.5-.3-3.7-.3-2.5-.6-5-1-7.5-.8-5-1.7-9.9-2.7-14.6-1.9-9.5-3.9-18.5-5.8-26.3-3.6-15.6-6.6-26.7-6.9-29.005-.1-.9.7.9,2,5.1,1.3,4.1,3.2,10.5,5.3,18.5,2.1,7.9,4.5,17.4,6.8,27.9,1.1,5.2,2.3,10.6,3.3,16.3.5,2.8,1,5.6,1.3,8.5.2,1.5.3,2.9.4,4.4a8.861,8.861,0,0,1,0,2.3c0,.4-.1.8-.1,1.2a6.105,6.105,0,0,1-.3,1.3l-2.1-.8a66.944,66.944,0,0,0,3.5-17.8,155.325,155.325,0,0,0,.3-18c-.5-11.8-1.6-22.9-2.5-32.506-.4-4.8-.8-9.3-1-13.3a7.582,7.582,0,0,0-.1-1.5v-.8h-1.5c-1.7,0-3.3-.1-4.8-.1C1498.2,1281.9,1494.8,1281.8,1494.4,1281.6Z" transform="translate(-1493.491 -1280.6)"/>
      </g>
    </g>
  </g>
  <g id="Group_56" data-name="Group 56" transform="translate(1436.06 1463.938)">
    <path id="Path_39" data-name="Path 39" class="cls-5" d="M1560.677,1311.83H1475.6c.3-33.706.7-132.923,25.493-165.429,5-6.5,11-10.4,18.2-10.4,8,0,14.4,4.3,19.595,11.6C1562.976,1181.208,1560.677,1278.525,1560.677,1311.83Z" transform="translate(-1474.9 -1134.899)"/>
    <g id="Group_55" data-name="Group 55">
      <g id="Group_54" data-name="Group 54">
        <path id="Path_40" data-name="Path 40" class="cls-2" d="M1558.877,1311.431s20.395.7-75.38,1.2h-8.6c0-3.5,0-7.1.1-10.8,0-3.5.1-7.1.1-10.9.1-7.5.3-15.6.6-24,.7-16.9,1.8-35.606,4.4-55.01a292.974,292.974,0,0,1,5.3-29.605c1.2-5,2.5-9.9,4.2-14.8a95.2,95.2,0,0,1,6-14.4,37.911,37.911,0,0,1,2-3.4c.7-1.1,1.5-2.2,2.2-3.3a27.482,27.482,0,0,1,5.4-5.9,20.316,20.316,0,0,1,6.9-4.2,19,19,0,0,1,3.9-1.1,27.269,27.269,0,0,1,4.1-.3,21.524,21.524,0,0,1,7.9,1.7,25.622,25.622,0,0,1,6.7,4.3,42.559,42.559,0,0,1,9.2,12.5,94.035,94.035,0,0,1,5.8,14c1.5,4.7,2.8,9.5,3.8,14.2,2.1,9.4,3.5,18.7,4.6,27.7,2.1,17.9,2.9,34.506,3.2,48.908.4,14.3.3,26.5.2,35.606s-.3,15.2-.5,17.5c-.1,1.8-.3-.7-.3-6.7-.1-6-.1-15.4-.4-27.6-.2-12.2-.7-27.1-1.9-43.908-.6-8.4-1.4-17.3-2.7-26.5a280.374,280.374,0,0,0-5.2-28.4c-2.5-9.6-5.6-19.5-11.2-28.2a34.6,34.6,0,0,0-4.7-6,25.081,25.081,0,0,0-6.1-4.6,19.491,19.491,0,0,0-14.8-1.3c-4.9,1.6-8.9,5.3-12,9.5a66.028,66.028,0,0,0-7.6,14.1c-4,10-6.6,20.6-8.7,31.205-2,10.6-3.5,21.2-4.6,31.705s-1.9,20.8-2.5,30.905-.9,19.9-1.2,29.305c-.1,4.7-.2,9.3-.3,13.9-.1,4.1-.1,8.2-.2,12.1,23.694.1,43.688.2,57.984.3C1549.38,1311.03,1558.077,1311.23,1558.877,1311.431Z" transform="translate(-1474.9 -1134.9)"/>
      </g>
    </g>
  </g>
  <path id="Path_41" data-name="Path 41" class="cls-2" d="M1511.2,1365.4s8.6-5.8,24.993-3.8S1534.294,1377.9,1511.2,1365.4Z" transform="translate(-38.85 329.078)"/>
  <ellipse id="Ellipse_3" data-name="Ellipse 3" class="cls-2" cx="20.394" cy="20.404" rx="20.394" ry="20.404" transform="translate(1481.147 1410.029)"/>
  <ellipse id="Ellipse_4" data-name="Ellipse 4" class="cls-2" cx="20.394" cy="20.404" rx="20.394" ry="20.404" transform="translate(1440.358 1416.03)"/>
  <path id="Path_42" data-name="Path 42" class="cls-2" d="M1512.793,1365s1.7,12.2-16.4,19.4C1478.3,1391.7,1483.4,1370.6,1512.793,1365Z" transform="translate(-38.843 329.078)"/>
  <g id="Group_59" data-name="Group 59" transform="translate(1449.813 1395.094)">
    <path id="Path_43" data-name="Path 43" class="cls-5" d="M1546.584,1098.405c0,41.607-56.785,41.607-56.785,0C1489.7,1056.7,1546.584,1056.8,1546.584,1098.405Z" transform="translate(-1488.658 -1066.068)"/>
    <g id="Group_58" data-name="Group 58">
      <g id="Group_57" data-name="Group 57">
        <path id="Path_44" data-name="Path 44" class="cls-2" d="M1546.084,1099.106s.3-2.1.4.7v1.3a12.158,12.158,0,0,1-.1,1.8c-.1.7-.1,1.5-.2,2.4s-.4,1.9-.6,3.1a12.1,12.1,0,0,1-.5,1.8c-.2.6-.4,1.3-.6,2a42.864,42.864,0,0,1-2.1,4.4,27.582,27.582,0,0,1-8.7,9.2,32.611,32.611,0,0,1-7.5,3.5,29.7,29.7,0,0,1-20.394-1.5,28.559,28.559,0,0,1-9.6-7.1,29.909,29.909,0,0,1-6-11.1,40.383,40.383,0,0,1-1.5-12.9,33.9,33.9,0,0,1,2.7-12.9,28.233,28.233,0,0,1,7.7-10.7,26.943,26.943,0,0,1,11.3-6,29.333,29.333,0,0,1,12.1-.7,30.315,30.315,0,0,1,10.6,3.7,27.234,27.234,0,0,1,7.6,6.6,30.285,30.285,0,0,1,6,14,29.58,29.58,0,0,1,.3,7.5c-.1.5-.2.2-.3-.8s-.2-2.7-.6-4.9a33.636,33.636,0,0,0-2.4-8.1,26.579,26.579,0,0,0-6.5-9.1,26.851,26.851,0,0,0-11.8-6.3c-.6-.1-1.2-.3-1.8-.4a11.013,11.013,0,0,0-1.8-.2,11.479,11.479,0,0,0-1.9-.1,12.048,12.048,0,0,0-1.9,0,25.888,25.888,0,0,0-7.7,1.3,25.551,25.551,0,0,0-13.2,9.3c-3.4,4.4-5.2,10.1-5.8,15.9a37.58,37.58,0,0,0,2.2,17,33.006,33.006,0,0,0,4.2,7.3,28.958,28.958,0,0,0,6.1,5.5,29.471,29.471,0,0,0,7.3,3.2,27.842,27.842,0,0,0,14.8,0,10.928,10.928,0,0,1,1.7-.5l.8-.3.8-.3c.5-.2,1-.5,1.6-.7.5-.3,1-.5,1.5-.8a25.3,25.3,0,0,0,2.7-1.8c.8-.6,1.6-1.3,2.4-2a20.889,20.889,0,0,0,2-2.2c.6-.8,1.2-1.5,1.7-2.2a29.688,29.688,0,0,0,3.9-8.7,33.442,33.442,0,0,0,.8-3.5,17.629,17.629,0,0,0,.4-2.7A7.133,7.133,0,0,1,1546.084,1099.106Z" transform="translate(-1488.657 -1066.068)"/>
      </g>
    </g>
  </g>
  <path id="Path_45" data-name="Path 45" class="cls-2" d="M1541.586,1071.8c0,21.1-52.786,21.1-52.786,0S1541.586,1050.7,1541.586,1071.8Z" transform="translate(-38.844 329.025)"/>
  <ellipse id="Ellipse_5" data-name="Ellipse 5" class="cls-2" cx="11.997" cy="12.002" rx="11.997" ry="12.002" transform="translate(1488.345 1401.328)"/>
  <ellipse id="Ellipse_6" data-name="Ellipse 6" class="cls-2" cx="11.997" cy="12.002" rx="11.997" ry="12.002" transform="translate(1442.458 1407.329)"/>
  <path id="Path_46" data-name="Path 46" class="cls-2" d="M1519.3,1109.1c2.4,0,4.3.9,4.4,2.1,0,1.2-1.9-.2-4.3-.2s-4.3,1.5-4.3.3C1514.9,1110.1,1516.9,1109.1,1519.3,1109.1Z" transform="translate(-38.851 329.034)"/>
  <path id="Path_47" data-name="Path 47" class="cls-2" d="M1517.5,1122.2s2.5-9,11-4.7C1522.2,1122.2,1517.5,1122.2,1517.5,1122.2Z" transform="translate(-38.852 329.035)"/>
  <ellipse id="Ellipse_7" data-name="Ellipse 7" class="cls-2" cx="2.399" cy="2.4" rx="2.399" ry="2.4" transform="translate(1485.946 1428.633)"/>
  <ellipse id="Ellipse_8" data-name="Ellipse 8" class="cls-2" cx="2.399" cy="2.4" rx="2.399" ry="2.4" transform="translate(1469.151 1428.633)"/>
  <g id="Group_62" data-name="Group 62" transform="translate(1483.139 1423.737)">
    <g id="Group_61" data-name="Group 61">
      <g id="Group_60" data-name="Group 60">
        <path id="Path_48" data-name="Path 48" class="cls-2" d="M1535.6,1102.1s.1-.4.2.2a5.018,5.018,0,0,1-.2,1.9,6.866,6.866,0,0,1-11.5,2.7,7.086,7.086,0,0,1-2.1-5.4,7.26,7.26,0,0,1,2.7-5.3,6.779,6.779,0,0,1,5.4-1.4,6.464,6.464,0,0,1,4.2,2.3,5.525,5.525,0,0,1,1.5,3.1,2.974,2.974,0,0,1,0,1.7c0,.1-.1,0-.1-.2a8.917,8.917,0,0,0-.2-1.1,7.245,7.245,0,0,0-2.3-3.5,6.4,6.4,0,0,0-5.8-1.1,6.321,6.321,0,0,0-4.3,5.1,6.083,6.083,0,0,0,.6,3.5,6.194,6.194,0,0,0,2.3,2.5,7.313,7.313,0,0,0,3.1.9,6.437,6.437,0,0,0,2.8-.7,6.738,6.738,0,0,0,2.9-3.3A7.119,7.119,0,0,0,1535.6,1102.1Z" transform="translate(-1521.992 -1094.705)"/>
      </g>
    </g>
  </g>
  <g id="Group_65" data-name="Group 65" transform="translate(1462.944 1423.737)">
    <g id="Group_64" data-name="Group 64">
      <g id="Group_63" data-name="Group 63">
        <path id="Path_49" data-name="Path 49" class="cls-2" d="M1515.4,1102.1s.1-.4.2.2a5.017,5.017,0,0,1-.2,1.9,6.866,6.866,0,0,1-11.5,2.7,7.086,7.086,0,0,1-2.1-5.4,7.259,7.259,0,0,1,2.7-5.3,6.779,6.779,0,0,1,5.4-1.4,6.464,6.464,0,0,1,4.2,2.3,5.525,5.525,0,0,1,1.5,3.1,2.974,2.974,0,0,1,0,1.7c0,.1-.1,0-.1-.2a8.941,8.941,0,0,0-.2-1.1,7.246,7.246,0,0,0-2.3-3.5,6.4,6.4,0,0,0-5.8-1.1,6.321,6.321,0,0,0-4.3,5.1,6.083,6.083,0,0,0,.6,3.5,6.194,6.194,0,0,0,2.3,2.5,7.312,7.312,0,0,0,3.1.9,6.437,6.437,0,0,0,2.8-.7,6.738,6.738,0,0,0,2.9-3.3A7.111,7.111,0,0,0,1515.4,1102.1Z" transform="translate(-1501.792 -1094.705)"/>
      </g>
    </g>
  </g>
  <g id="Group_68" data-name="Group 68" transform="translate(1476.722 1430.404)">
    <g id="Group_67" data-name="Group 67">
      <g id="Group_66" data-name="Group 66">
        <path id="Path_50" data-name="Path 50" class="cls-2" d="M1515.6,1102.2s-.3-.3,1.1-.6,5.5-.4,5.8.3C1522.9,1102.6,1515.7,1102.9,1515.6,1102.2Z" transform="translate(-1515.573 -1101.371)"/>
      </g>
    </g>
  </g>
</svg>
