<svg xmlns="http://www.w3.org/2000/svg" viewBox="370 6129.673 21.2 25.9">
  <defs>
    <style>
      .cls-1 {
        fill: #66d5d6;
      }
    </style>
  </defs>
  <g id="Group_157" data-name="Group 157" transform="translate(8.5 5579.974)">
    <g id="Group_156" data-name="Group 156">
      <path id="Path_83" data-name="Path 83" class="cls-1" d="M369.9,565.1c-.2.6-.9-6-1.1-5.5v-.9a28.532,28.532,0,0,0-1.6-7.7h-.3c.1.6.2,1.1.3,1.6.1,1,.3,1.9.4,2.8a15.062,15.062,0,0,0-1.4-3.5,15.917,15.917,0,0,0-1.3-2.2l-1.2.4a3.333,3.333,0,0,0,0,1c.3,2,.5,4,.7,5.9a26.977,26.977,0,0,0-2.7-6.6.349.349,0,0,0-.2.1l.6,2.1a43.1,43.1,0,0,1,1.9,6.1c.3,1.5.9,4.6,1.7,9.6.8,4.9,1.4,7.3,1.9,7.3h.3l.7-.5c2.2-4.1,4.5-8.1,7-12,.6-.9,1.2-1.9,1.8-2.9a4.235,4.235,0,0,0,.5-.7l4.5-7.5c0-.1,0-.1.1-.2v-.5h-.3v.1a.367.367,0,0,0-.1.3,1.38,1.38,0,0,0-.3.4c.3-.7.6-1.3.9-1.9l-.8-.5a3.916,3.916,0,0,0-1,.8,106.833,106.833,0,0,0-7.2,10.4Z"/>
    </g>
  </g>
</svg>
